<svg id="Layer_1" data-name="Layer 1" xmlns="http://www.w3.org/2000/svg" viewBox="0 0 601.2 604.5"><defs><style>.cls-1{fill:#fff;}</style></defs><title>corporate_passport_stamp_02_white</title><path class="cls-1" d="M85.8,266.82c-0.25,1-.5,2-0.76,3,0.86,0.87.32,0,.76,1.52l2.29-.78v-3.8H85.8Z" transform="translate(-59.4 -57.75)"/><polygon class="cls-1" points="312.1 397.21 322.69 389.52 333.27 397.21 329.23 384.76 339.81 377.06 326.72 377.06 322.69 364.63 318.64 377.06 305.55 377.06 316.14 384.76 312.1 397.21"/><polygon class="cls-1" points="356.25 397.21 366.84 389.52 377.42 397.21 373.38 384.76 383.97 377.06 370.89 377.06 366.84 364.63 362.79 377.06 349.72 377.06 360.3 384.76 356.25 397.21"/><polygon class="cls-1" points="400.42 397.21 411 389.52 421.59 397.21 417.54 384.76 428.13 377.06 415.05 377.06 411 364.63 406.95 377.06 393.87 377.06 404.45 384.76 400.42 397.21"/><path class="cls-1" d="M167.84,442.51l10.59-7.69H165.35l-1.88-5.75h4.76c-0.25-1-.5-2-0.76-3h-3.81v1.52H163l-1.68-5.16L160.12,426h-2.55v3h1.56l-1.87,5.75h-0.6a7.48,7.48,0,0,0-.6-2.7c0.11-3.22.38-5.59-1.52-6.85,0.09,3.18.18,6.37,0.27,9.55h-7.42a5,5,0,0,1-.46-0.42v0.42h-2.74l10.59,7.69-1.08,3.31H153V444.3h-5.33v2.28l5.56,0.61-1.28,4h-0.47v1.45L150.72,455l2.1-1.54H153V453.3l0.77-.56v0.69h0.76v-1.23l0.75-.55c0,0.09,0,.17,0,0.27h0.76v-0.83l2.83-2.05,4.78,0.58-0.19-.78,8.42,6.12Z" transform="translate(-59.4 -57.75)"/><path class="cls-1" d="M382.09,283l10.58,7.69-3-9.38a6.92,6.92,0,0,1-2.41.51c-1-1.52-2-3-3-4.57h-2.29c-0.26-.5-0.5-1-0.76-1.52h-2.28v-0.76c0.86-.87.3,0,0.76-1.53l-3.82-.74c-0.07-.72-0.14-1.44-0.21-2.14H365l10.59,7.69-4,12.43Z" transform="translate(-59.4 -57.75)"/><path class="cls-1" d="M386.13,270.53l-4-12.44-3,9.16c3,2.48,4.94,6.19,7.63,8.6v1h0.76c-0.06-.21-0.1-0.36-0.13-0.49a9.36,9.36,0,0,0,2.08,1.28l9.77-7.1H386.13Z" transform="translate(-59.4 -57.75)"/><path class="cls-1" d="M306.65,595.48l0.41-.4-0.41-.09v0.49Z" transform="translate(-59.4 -57.75)"/><path class="cls-1" d="M297.51,593.2c2.28,0.5,1.81,1.32,2.28,1.54h3.81v0.74c0.55-.27,1.09-0.53,1.65-0.82-2.6-.6-5.18-1.23-7.74-1.91v0.44Z" transform="translate(-59.4 -57.75)"/><polygon class="cls-1" points="135.47 397.21 146.06 389.52 156.64 397.21 152.6 384.76 163.19 377.06 150.1 377.06 146.06 364.63 142.01 377.06 128.93 377.06 139.51 384.76 135.47 397.21"/><path class="cls-1" d="M165.35,270.53l-4-12.44-4,12.44H144.17l0.84,0.62a11.42,11.42,0,0,1,4-.53v2.3h-1.55l7.31,5.31-4,12.43L161.3,283l10.59,7.69-4-12.43,10.59-7.69H165.35Z" transform="translate(-59.4 -57.75)"/><path class="cls-1" d="M209.46,527.7l0.64,0.59c-0.05-.17-0.11-0.37-0.17-0.59h-0.47Z" transform="translate(-59.4 -57.75)"/><path class="cls-1" d="M452.65,176.89a0.38,0.38,0,0,0,0-.11l0,0.06A0.11,0.11,0,0,1,452.65,176.89Z" transform="translate(-59.4 -57.75)"/><polygon class="cls-1" points="396.96 140.91 397.06 140.97 397.06 140.73 396.96 140.91"/><path class="cls-1" d="M312,596.24h0.32a2.26,2.26,0,0,1-.32-0.05v0.05Z" transform="translate(-59.4 -57.75)"/><path class="cls-1" d="M169.57,507.91h0.23l-0.23-.3v0.3Z" transform="translate(-59.4 -57.75)"/><path class="cls-1" d="M474,169.27h-0.46c0.17,0.1.3,0.22,0.46,0.32v-0.32Z" transform="translate(-59.4 -57.75)"/><polygon class="cls-1" points="422.42 119.89 423.32 118.37 421.44 118.37 421.44 121.58 422.2 120.29 422.2 119.89 422.42 119.89"/><path class="cls-1" d="M465.23,183.47a2.73,2.73,0,0,1,.45.65,8.42,8.42,0,0,1,.61-2.47Z" transform="translate(-59.4 -57.75)"/><path class="cls-1" d="M472.46,165.46V167h0.29l0.69-1.18C473.12,165.68,472.8,165.55,472.46,165.46Z" transform="translate(-59.4 -57.75)"/><path class="cls-1" d="M471.7,179v1.74h-0.76v0.77l2.28-.77v2.2l1-1.66c0.92-1.56.95-2.57,0.12-3.07a1.39,1.39,0,0,0-.69-0.13c0.26,0.21,0,0,.36,1.15h-0.76V178a2.42,2.42,0,0,0-.86.41C472.14,178.61,471.93,178.79,471.7,179Z" transform="translate(-59.4 -57.75)"/><path class="cls-1" d="M253.34,576.45l1.9,0.63c-0.64-.3-1.25-0.64-1.9-1v0.34Z" transform="translate(-59.4 -57.75)"/><path class="cls-1" d="M550.37,448.06l-2.24,6.9,5.19-3.77-2.27-.38A9.6,9.6,0,0,1,550.37,448.06Z" transform="translate(-59.4 -57.75)"/><path class="cls-1" d="M560.19,430.25c-0.87-.86-0.3,0-0.76-1.52l1.42,0.24-1.31-4h-1.63v-0.05l-2,6.14h4.29v-0.76Z" transform="translate(-59.4 -57.75)"/><path class="cls-1" d="M558.72,422.38l-0.06.16h0.11Z" transform="translate(-59.4 -57.75)"/><path class="cls-1" d="M544.2,435.58v1.14l1.57,1.14c0.47-.05.41,0.08,0.34,0.25l0.71,0.51h2.7c0.12,0.75.26,1.49,0.38,2.24l1.15,0.83a0,0,0,0,0,0,0h3.05c0,3.56.73,5.46,1.24,8l1.64-1.2h-1.36V447h4.58c-0.1.38-.19,0.76-0.28,1.13l1.8,1.3v-0.15h1.53v1.25L569.3,455l-3-9.38-0.74-.1v-2.15l-0.27-.82,1-.75v-0.09h-0.76v-1.52H567c-0.26-1.28-.5-2.54-0.76-3.81l3.05,0.76c0.08,0.76.14,1.53,0.22,2.28l6.28-4.56H564.51a1.29,1.29,0,0,1,.25,1.52H564v1.53h-0.75v-3.05h-0.49l-0.63-1.94-4.21.42v-0.77h-2.49l-0.75,2.29H541.58l1.33,1C543.27,435.74,543.67,435.67,544.2,435.58Z" transform="translate(-59.4 -57.75)"/><path class="cls-1" d="M551.59,444.33L550.72,447h1.11v1.52h1.52v-3h-1.52Z" transform="translate(-59.4 -57.75)"/><polygon class="cls-1" points="238.42 212.78 234.36 200.34 230.33 212.78 217.24 212.78 227.82 220.47 223.79 232.91 234.36 225.22 244.96 232.91 240.91 220.47 251.5 212.78 238.42 212.78"/><polygon class="cls-1" points="444.57 397.21 455.15 389.52 465.74 397.21 461.69 384.76 472.28 377.06 459.2 377.06 455.15 364.63 451.11 377.06 438.03 377.06 448.62 384.76 444.57 397.21"/><path class="cls-1" d="M342,270.53l-0.89-2.73c-0.26.84-.58,0.82-0.6,0.82V279.3h-0.76c-0.86.87,0,.3-1.52,0.76q0.77-7.22,1.52-14.46c0.87,0.86.31,0,.76,1.52h0.37L339,261.29v1.25l-1.52-.76V261h0.76v-0.76h0.43l-0.71-2.16-1.45,4.44h0.2v0.76l0.76,0.78h-0.76v0.74a5.41,5.41,0,0,1-.7-0.74l-0.25.74h0.19v1.53c-0.39-.39-0.5-0.44-0.53-0.5l-1.52,4.68H320.81l10.57,7.69-4,12.43,5.54-4v-2.8h0.75v-0.75h-0.75c-0.69-3.72.6-6.34,1.52-8.38h0.76v5.33c0.09,0.22,1.41.26,1.52,1.52l-1.52.77a8.44,8.44,0,0,0-.41,2.95l3.18-2.32,0.59,0.43a4,4,0,0,1,.45-1.06h-0.76v-0.77h2.28l0.77,3h-0.77v0.21l8,5.82-4-12.43,10.59-7.69H342Z" transform="translate(-59.4 -57.75)"/><polygon class="cls-1" points="503.35 212.78 499.32 200.34 495.26 212.78 482.18 212.78 492.76 220.47 488.73 232.91 499.32 225.22 509.9 232.91 505.85 220.47 516.44 212.78 503.35 212.78"/><polygon class="cls-1" points="194.26 212.78 190.21 200.34 186.16 212.78 173.08 212.78 183.67 220.47 179.63 232.91 190.21 225.22 200.8 232.91 196.75 220.47 207.34 212.78 194.26 212.78"/><polygon class="cls-1" points="459.2 212.78 455.15 200.34 451.11 212.78 438.03 212.78 448.62 220.47 444.57 232.91 455.15 225.22 465.74 232.91 461.69 220.47 472.28 212.78 459.2 212.78"/><polygon class="cls-1" points="14.47 210.6 14.97 211.25 14.97 210.6 14.47 210.6"/><polygon class="cls-1" points="391.74 45.48 390.85 46.03 391.74 46.03 391.74 45.48"/><path class="cls-1" d="M118.55,252.83l-0.9.27h0.9v-0.28Z" transform="translate(-59.4 -57.75)"/><path class="cls-1" d="M183.28,120.28h1.52c0.51-.75,1-1.51,1.52-2.28h1.53l0.33-.49-5.84-2.06,0.14,5.9Z" transform="translate(-59.4 -57.75)"/><path class="cls-1" d="M354.63,66.21c1-.24,2-0.51,3-0.76V64.69h3l0.76-1.52,2-.4-3.49-5L353.61,67h1V66.21Z" transform="translate(-59.4 -57.75)"/><polygon class="cls-1" points="259.9 27.49 259.9 28.09 260.53 28.09 259.9 27.49"/><polygon class="cls-1" points="150.1 212.78 146.06 200.34 142.01 212.78 128.93 212.78 139.51 220.47 135.47 232.91 146.06 225.22 156.64 232.91 152.6 220.47 163.19 212.78 150.1 212.78"/><path class="cls-1" d="M147.49,474.4h0.37c-0.13-.23-0.25-0.47-0.37-0.71v0.71Z" transform="translate(-59.4 -57.75)"/><path class="cls-1" d="M474.45,270.53l-4-12.44-4,12.44H453.27l0.37,0.27c0.74,0,1.16-.65,1.14.67h-0.21l2.7,2c0.44-.16.87-0.3,1.32-0.45l0.75,1.52c1.25,0.89,3.11.78,5.33,0.78v1.52h0.77v-1.52c2.84-.4,4.44-0.21,7.61-0.78,0.32,1.42,1.73,4.67.76,6.87l-1.52.76a4.87,4.87,0,0,0-.56,1.81l9.25,6.72-4-12.43,10.58-7.69H474.45Z" transform="translate(-59.4 -57.75)"/><path class="cls-1" d="M462.26,283.15l-2.44,7.52,6.6-4.79-0.22-.7h-2.29v-1.51A12.09,12.09,0,0,1,462.26,283.15Z" transform="translate(-59.4 -57.75)"/><path class="cls-1" d="M484.64,144.14c-0.82,2.19-.79,5.82-0.77,9.12,2.43,1.47,4.81,3,7.17,4.53,0.43-3.69-.81-7.91-1.06-10.6-2.59-.78-1.42-1-3.05-2.29v-0.76h-2.28Z" transform="translate(-59.4 -57.75)"/><path class="cls-1" d="M443.37,270.53H430.29l-4-12.44-4,12.44H409.12l10.59,7.69-4,12.43L426.24,283l10.59,7.69-4-12.43,3.87-2.81c0-.3-0.1-0.6-0.15-0.91h-2.29v-0.76c-0.86-.87-0.3,0-0.75-1.51h0.75v-0.76l2.29,0.76a8.42,8.42,0,0,0,1.11,2.49l1.68-1.23-0.5-2,2.26,0.74Z" transform="translate(-59.4 -57.75)"/><path class="cls-1" d="M451.15,106.07h-0.77v2.27a7.8,7.8,0,0,0,3,.77l0.76-2.29h2.28v1.52c0.87-.86.31,0,0.76-1.52H458a16.8,16.8,0,0,1-.76-3h2.29c0.48-2.09,1.44-2.81,2.28-4.57l3,0.76c0.08,4.06,1.08,3.56,1.52,6.86h1.52v-4.57h2.29v2.29h0.76v-2.29l2.28-.75V100H474v1.53h2.29V100H477v2.28h1.52c-0.25-1.27-.5-2.53-0.76-3.8h0.76a3,3,0,0,0,1.52,1.52,7.25,7.25,0,0,1,.77-3,12,12,0,0,0,4.57.76v1.52h0.41l-2.9-15.35-30.19,18.39h3l-0.76,3-3,.77v2.27h-0.75v-2.27Z" transform="translate(-59.4 -57.75)"/><polygon class="cls-1" points="575.05 378.59 574.66 378.07 574.66 378.59 575.05 378.59"/><path class="cls-1" d="M156.62,489.64h0.27l-0.27-.42v0.42Z" transform="translate(-59.4 -57.75)"/><polygon class="cls-1" points="267.94 397.21 278.53 389.52 289.11 397.21 285.06 384.76 295.65 377.06 282.57 377.06 278.53 364.63 274.48 377.06 261.4 377.06 271.98 384.76 267.94 397.21"/><path class="cls-1" d="M160.81,562v1.52h0.76C161.11,562,161.68,562.92,160.81,562Z" transform="translate(-59.4 -57.75)"/><rect class="cls-1" x="89.99" y="506.58" width="2.28" height="1.52"/><rect class="cls-1" x="99.89" y="511.91" width="0.76" height="2.28"/><path class="cls-1" d="M182.14,575.76v1.52h0.76C182.44,575.76,183,576.62,182.14,575.76Z" transform="translate(-59.4 -57.75)"/><polygon class="cls-1" points="114.36 521.05 115.12 521.05 115.12 521.81 115.88 521.81 115.88 520.28 114.36 520.28 114.36 521.05"/><rect class="cls-1" x="171.47" y="555.32" width="0.77" height="3.81"/><rect class="cls-1" x="168.43" y="556.08" width="0.76" height="2.29"/><path class="cls-1" d="M146.91,433.64h0.76c-0.46-1.52.1-.67-0.76-1.52v1.52Z" transform="translate(-59.4 -57.75)"/><path class="cls-1" d="M144.63,470.19v1.52h0.76C144.93,470.19,145.5,471.06,144.63,470.19Z" transform="translate(-59.4 -57.75)"/><path class="cls-1" d="M441.69,617.51V619h0.77C442,617.51,442.56,618.38,441.69,617.51Z" transform="translate(-59.4 -57.75)"/><path class="cls-1" d="M239,455l10.59-7.69L260.2,455l-2.56-7.89a1.53,1.53,0,0,1,.65,0v0.76h5.33v1.53h2.29v-1.53h2.27v1.53h1.53v-1.53h1.52v-1.52c-1.52-.46-0.65.1-1.52-0.76H269v-0.76h7.61c0.91-3.34,2.79-3.64,3-7.81l3.08,2.24v1H284l3.18,2.31-4,12.45,7.74-5.62h3.15c0.14-.52.27-1,0.39-1.56l4.25,3.08h-2.35v1.52l-1.53.76,0.77,6.1h-0.77v2.28h-0.76c0.26,1.26.51,2.53,0.76,3.81,3-.88,1-0.2,2.29-2.29h0.76v-1.52h0.76V460l3.81-3v-1.52c0.51-.25,1-0.5,1.52-0.76l0.38,0.29-0.2-.62c0.57-1.1,0-1.48,1.34-2.73v-0.76H303l-2.71-8.35,6.33-4.59H307v-0.28l1.71-1.25h2.86v1.53h2.28v-2.29H311.6v-0.76l-0.88.09,0.18-.13H297.82l-4.05-12.43-4,12.43H276.64l0.08,0.07-0.92,0c-0.46-1.52.11-.65-0.76-1.52v1.52h-2.28v-1.52h-2.29v-3H269c-0.53-2.07-1-1.71-1.53-3.8h-3q-0.39,1.14-.76,2.28l-1.52.76v1.53h-0.77v1.52l-3,2.23h-4.68l-4-12.43-4,12.43H232.48l10.59,7.69Z" transform="translate(-59.4 -57.75)"/><path class="cls-1" d="M284.18,449.34l0.77-3h-0.77v-0.76l-4.56.76v-0.76h-3.05v0.76h-3v3h6.09c0.46-1.52-.11-0.66.76-1.53v1.53h3.8Z" transform="translate(-59.4 -57.75)"/><rect class="cls-1" x="231.64" y="395.39" width="0.76" height="3.81"/><path class="cls-1" d="M145.39,429.07h8.38L153,426H134v1.52h5.33v1.52h4.57v-1.52h1.52v1.52Z" transform="translate(-59.4 -57.75)"/><polygon class="cls-1" points="98.17 397.97 102.74 398.73 102.74 395.67 98.17 395.67 98.17 397.97"/><polygon class="cls-1" points="92.83 398.73 92.83 400.25 94.37 400.25 94.37 397.21 91.32 397.21 91.32 398.73 92.83 398.73"/><rect class="cls-1" x="103.5" y="397.21" width="1.53" height="1.52"/><rect class="cls-1" x="182.89" y="396.92" width="0.77" height="6.09"/><rect class="cls-1" x="186.71" y="399.96" width="0.76" height="3.05"/><rect class="cls-1" x="176.8" y="402.24" width="0.76" height="2.29"/><path class="cls-1" d="M343.24,510.21v1.52H344C343.54,510.21,344.11,511.08,343.24,510.21Z" transform="translate(-59.4 -57.75)"/><path class="cls-1" d="M353.9,510.21v1.52h0.76C354.2,510.21,354.77,511.08,353.9,510.21Z" transform="translate(-59.4 -57.75)"/><rect class="cls-1" x="256.42" y="456.27" width="2.28" height="1.52"/><rect class="cls-1" x="338.67" y="456.27" width="0.76" height="4.57"/><path class="cls-1" d="M348.57,520.87v1.52h0.77C348.87,520.87,349.44,521.75,348.57,520.87Z" transform="translate(-59.4 -57.75)"/><path class="cls-1" d="M289.92,130h-0.77c0.46,1.52-.11.66,0.77,1.52V130Z" transform="translate(-59.4 -57.75)"/><rect class="cls-1" x="324.95" y="72.26" width="2.28" height="0.76"/><path class="cls-1" d="M410.24,126.2V127h1.53C410.89,126.11,411.77,126.64,410.24,126.2Z" transform="translate(-59.4 -57.75)"/><path class="cls-1" d="M287.63,156.83l-0.32-.91v0.74Z" transform="translate(-59.4 -57.75)"/><path class="cls-1" d="M286,147.09l0.39,1.12a13.79,13.79,0,0,1,.91-1.55l-0.27.07Z" transform="translate(-59.4 -57.75)"/><path class="cls-1" d="M288.84,149.8h-1.9l0.11,0.34a2.84,2.84,0,0,1,2.77.31c0.4-1.6.8-3.19,1.2-4.79-0.7.13-1.44,0.32-2.19,0.53v3.6Z" transform="translate(-59.4 -57.75)"/><path class="cls-1" d="M297.22,145.69a12.65,12.65,0,0,0-3.72-.35c0,0.4-.05.84-0.09,1.43h3.81v-1.08Z" transform="translate(-59.4 -57.75)"/><path class="cls-1" d="M256.41,145.25V146h1.52C257.07,145.15,257.94,145.68,256.41,145.25Z" transform="translate(-59.4 -57.75)"/><path class="cls-1" d="M258.69,143.71h-0.76c0.46,1.52-.11.67,0.76,1.54v-1.54Z" transform="translate(-59.4 -57.75)"/><path class="cls-1" d="M261,143.71v0.78h1.52C261.64,143.62,262.5,144.16,261,143.71Z" transform="translate(-59.4 -57.75)"/><rect class="cls-1" x="212.24" y="84.45" width="2.28" height="0.76"/><rect class="cls-1" x="263.26" y="68.45" width="2.29" height="0.77"/><rect class="cls-1" x="275.44" y="66.17" width="3.05" height="0.76"/><rect class="cls-1" x="287.63" y="63.89" width="0.76" height="2.28"/><rect class="cls-1" x="292.96" y="64.65" width="3.05" height="0.76"/><rect class="cls-1" x="289.16" y="63.89" width="3.81" height="0.76"/><path class="cls-1" d="M340.94,121.64v0.76h1.53C341.59,121.54,342.47,122.08,340.94,121.64Z" transform="translate(-59.4 -57.75)"/><path class="cls-1" d="M353.13,120.11h-0.76c0.45,1.52-.11.66,0.76,1.53v-1.53Z" transform="translate(-59.4 -57.75)"/><path class="cls-1" d="M369.11,120.86v-1.51h-0.76C368.81,120.86,368.25,120,369.11,120.86Z" transform="translate(-59.4 -57.75)"/><path class="cls-1" d="M347.79,120.11v0.75h1.53C348.45,120,349.33,120.55,347.79,120.11Z" transform="translate(-59.4 -57.75)"/><path class="cls-1" d="M307.28,602c-0.26.76-.5,1.52-0.76,2.27a7.26,7.26,0,0,0,3,.78c-0.24-.78-0.5-1.53-0.76-2.29Z" transform="translate(-59.4 -57.75)"/><path class="cls-1" d="M257.91,558.18a0.37,0.37,0,0,1,.12,0,2.88,2.88,0,0,0-.12-0.29v0.34Z" transform="translate(-59.4 -57.75)"/><rect class="cls-1" x="172.99" y="489.07" width="0.76" height="3.04"/><rect class="cls-1" x="208.78" y="493.64" width="0.77" height="2.28"/><path class="cls-1" d="M232.4,558.24l-0.76,2.28h0.76v0.76h0.76v-8.37h-1.52v3h0.76c0.2,1.06-.63-0.31-0.76.76C231.45,558.24,232.4,558.24,232.4,558.24Z" transform="translate(-59.4 -57.75)"/><rect class="cls-1" x="207.27" y="495.92" width="0.76" height="2.29"/><rect class="cls-1" x="175.28" y="501.25" width="1.52" height="1.52"/><path class="cls-1" d="M240.77,565.09h3v-1.53h1.52V562H240Q240.39,563.56,240.77,565.09Z" transform="translate(-59.4 -57.75)"/><rect class="cls-1" x="262.98" y="580.57" width="2.29" height="1.52"/><rect class="cls-1" x="380.78" y="567.37" width="0.75" height="2.28"/><path class="cls-1" d="M398.83,539.91c-0.26-2.53-.51-5.08-0.76-7.61h-0.76l-0.77,2.28h-2.28v1.53h1.52c0.53,2.07,1,1.71,1.53,3.8h1.52Z" transform="translate(-59.4 -57.75)"/><path class="cls-1" d="M310.5,539.15h-0.77v0.76c-1.58-.25-0.69-0.05-1.52-0.76h-0.76v3l3.81,0.76v-3H310.5v-0.76Z" transform="translate(-59.4 -57.75)"/><rect class="cls-1" x="253.37" y="481.4" width="0.76" height="3.05"/><path class="cls-1" d="M365.32,539.15v1.53h0.76C365.63,539.15,366.19,540,365.32,539.15Z" transform="translate(-59.4 -57.75)"/><rect class="cls-1" x="289.94" y="482.16" width="0.75" height="2.28"/><path class="cls-1" d="M318.11,542.19h-2.28v2.29l2.28,0.77v-3.06Z" transform="translate(-59.4 -57.75)"/><rect class="cls-1" x="305.92" y="484.44" width="0.76" height="2.29"/><rect class="cls-1" x="289.94" y="485.97" width="0.75" height="3.04"/><path class="cls-1" d="M401.12,552.86c-1.52-.45-0.65.11-1.52-0.76h-0.76v-0.76h1.52c-0.25-1.52-.5-3-0.76-4.57h-3v7.62c0.23,1.06.9-.3,0.77,0.76h-0.77v2.28h4.57v-4.57Z" transform="translate(-59.4 -57.75)"/><rect class="cls-1" x="289.94" y="490.54" width="0.75" height="3.8"/><rect class="cls-1" x="263.87" y="594.54" width="2.28" height="0.76"/><rect class="cls-1" x="287.48" y="591.5" width="1.52" height="1.52"/><path class="cls-1" d="M341.55,650v0.78h1.52C342.21,649.91,343.08,650.44,341.55,650Z" transform="translate(-59.4 -57.75)"/><rect class="cls-1" x="287.48" y="589.97" width="2.28" height="0.76"/><rect class="cls-1" x="332.41" y="585.4" width="3.04" height="1.53"/><path class="cls-1" d="M456.54,634.78h0.76v0.77h0.76V634C456.54,634.46,457.4,633.9,456.54,634.78Z" transform="translate(-59.4 -57.75)"/><path class="cls-1" d="M455.79,635.54V634H455C455.49,635.54,454.91,634.66,455.79,635.54Z" transform="translate(-59.4 -57.75)"/><path class="cls-1" d="M346.88,598.22c-0.65,1.31,1.69.69,2.28,0.75C347.89,597.57,348.72,597.49,346.88,598.22Z" transform="translate(-59.4 -57.75)"/><path class="cls-1" d="M371.25,595.17h-3v0.76H369c0.46,1.54-.25.68,0.76,1.53V596.7h0.76l-0.76,1.52c0.64,0.36,3.39-1.41,5.33-.75,0.11,0,0,.54,1.53.75V596.7l-5.34-.76v-0.76Z" transform="translate(-59.4 -57.75)"/><path class="cls-1" d="M359.82,597.46v0.75h1.53C360.48,597.36,361.35,597.9,359.82,597.46Z" transform="translate(-59.4 -57.75)"/><path class="cls-1" d="M355.26,596.7v1.52h2.28C356.67,596.94,357.08,597.15,355.26,596.7Z" transform="translate(-59.4 -57.75)"/><path class="cls-1" d="M350.69,598.22V596.7h-0.76C350.39,598.22,349.82,597.35,350.69,598.22Z" transform="translate(-59.4 -57.75)"/><path class="cls-1" d="M391.05,592.12c-2.16,1.18-2.86-.84-6.09,0v0.77h-3v1.5h2.28v1.54L388,596.7v-1.52h3.81v-2.28h-0.76v-0.77Z" transform="translate(-59.4 -57.75)"/><path class="cls-1" d="M397.15,595.17h4.56V594.4l-4.56-.75v1.52Z" transform="translate(-59.4 -57.75)"/><path class="cls-1" d="M393.34,592.12c-0.25.77-.5,1.53-0.76,2.27h2.28v0.78h0.77C395.45,591.37,395.8,593,393.34,592.12Z" transform="translate(-59.4 -57.75)"/><path class="cls-1" d="M423,589.84v0.76c-1.52.23-1.52-.76-1.52-0.76l-6.85.76v1.52h-1.52v0.77h7.61v-0.77h3l0.77-1.52h4.57v-0.76h-0.77C427.8,589.36,425.84,589.14,423,589.84Z" transform="translate(-59.4 -57.75)"/><path class="cls-1" d="M401,590.6c-2.08.58-1.74,0.17-2.29,2.29l14.48-.77c0.24-.75.5-1.52,0.76-2.28C410.8,589.79,401.19,590.45,401,590.6Z" transform="translate(-59.4 -57.75)"/><path class="cls-1" d="M379.63,587.56c-0.66.37,0.25,1.14-.77,0.76v-0.76c-1.5-.29-0.95.33-1.52,0.76h-0.76v0.76h3.81C380.27,588.63,380.9,586.83,379.63,587.56Z" transform="translate(-59.4 -57.75)"/><path class="cls-1" d="M374.3,588.32v0.76h1.52C375,588.23,375.83,588.76,374.3,588.32Z" transform="translate(-59.4 -57.75)"/><path class="cls-1" d="M398.67,587.56V586h-0.76C398.37,587.55,397.8,586.69,398.67,587.56Z" transform="translate(-59.4 -57.75)"/><rect class="cls-1" x="334.19" y="152.84" width="0.76" height="2.29"/><rect class="cls-1" x="334.19" y="157.41" width="0.76" height="2.28"/><path class="cls-1" d="M392.06,217.44h-1.51V222h1.51C392.51,219.2,392.52,220.27,392.06,217.44Z" transform="translate(-59.4 -57.75)"/><path class="cls-1" d="M366.93,231.91v1.52h0.78C367.24,231.91,367.8,232.78,366.93,231.91Z" transform="translate(-59.4 -57.75)"/><path class="cls-1" d="M392.83,236.49V238h0.76C393.13,236.49,393.69,237.35,392.83,236.49Z" transform="translate(-59.4 -57.75)"/><rect class="cls-1" x="311.35" y="181.01" width="9.9" height="1.52"/><rect class="cls-1" x="333.43" y="181.01" width="0.76" height="4.57"/><rect class="cls-1" x="301.45" y="181.77" width="2.27" height="1.52"/><path class="cls-1" d="M392.83,245.62h0.76c-0.46-1.52.1-.65-0.76-1.52v1.52Z" transform="translate(-59.4 -57.75)"/><rect class="cls-1" x="316.68" y="195.48" width="2.28" height="2.29"/><rect class="cls-1" x="301.45" y="197.01" width="1.52" height="1.52"/><rect class="cls-1" x="290.78" y="197.77" width="3.05" height="2.28"/><path class="cls-1" d="M366.93,260.85v1.52h0.78c-0.27-2.27-.08-2.09-1.53-3C366.63,260.85,366.07,260,366.93,260.85Z" transform="translate(-59.4 -57.75)"/><path class="cls-1" d="M368.46,266.94h0.77c0.25-1,.5-2,0.76-3h-1.53v3Z" transform="translate(-59.4 -57.75)"/><path class="cls-1" d="M280.46,96.52h0.76c0.84-2.24.87-2.3,0-4.57l2.29-.76c0-3.14.3-3.9-2.29-4.57-0.71,3.32-2.11,3.88-2.28,7.63h1.52v2.27Z" transform="translate(-59.4 -57.75)"/><path class="cls-1" d="M228.68,102.61a8.06,8.06,0,0,0,3.06-.76L231,96.52c-1.52-.45-0.65.1-1.52-0.76H231c-0.07-2.91.16-3.17-2.28-3.81v4.57l-1.52-.76v4.58h0.76C228.18,101.1,228.43,101.85,228.68,102.61Z" transform="translate(-59.4 -57.75)"/><path class="cls-1" d="M79.83,362.93c-0.07-3.22-.37-4-3-4.56-0.46,1.52.1,0.66-.76,1.52,0.87,1,1.38,1.2,3,1.52v1.51h0.75Z" transform="translate(-59.4 -57.75)"/><path class="cls-1" d="M524.45,481.13h-1.52c-0.87.63,0.76,0.77,0.76,0.77l-0.76,1.52h3V481.9C524.45,481.43,525.32,482,524.45,481.13Z" transform="translate(-59.4 -57.75)"/><path class="cls-1" d="M530.54,482.65h-2.28c0.25,0.77.51,1.53,0.76,2.29,2.25,0.28,4.43,1.54,6.09,0h0.76v-0.76l-5.34-.76v-0.77Z" transform="translate(-59.4 -57.75)"/><path class="cls-1" d="M541.2,483.42c-1.52.46-.65-0.11-1.52,0.76h-0.76v0.76h2.28v-1.52Z" transform="translate(-59.4 -57.75)"/><rect class="cls-1" x="339.9" y="402.88" width="2.28" height="0.77"/><rect class="cls-1" x="342.18" y="404.4" width="4.58" height="0.76"/><path class="cls-1" d="M410,465.2l0.76,1.54h1.52v0.75l4.58,1.52v0.76c2.44,0.92,5.18-.58,6.85.76h1.53v-0.76c-5.24-2.45-12-5.8-18.29-6.85-0.26.51-.5,1-0.76,1.52Z" transform="translate(-59.4 -57.75)"/><polygon class="cls-1" points="337.61 411.26 337.61 410.5 336.09 409.74 336.09 412.02 336.85 412.02 336.85 411.26 337.61 411.26"/><path class="cls-1" d="M623.82,360l36.78-31.6L618,305.14l29.44-38.55L615.28,257l1.44-2.46h-6.25v1L601,252.69l20.77-43.83-48.33-3.94,11.19-47.18-48.11,6.19,1.15-48.5-45.77,16.07-1.49-7.94h-2c-0.26,1-.51,2-0.76,3h-1.52a26,26,0,0,0,.75,6.09l2.29,0.76a7.48,7.48,0,0,1-.76,3l-3-.77c0.59,2.35,1.43,2.57,3.8,3v2.28H490v-1.52h0.76v0.76h3v0.76h0.76c-0.51,1.77-1,3.56-1.53,5.33h0.77V151a40.52,40.52,0,0,0-1.21,7.77,242,242,0,0,1,88.24,104.57c-0.25.2-.51,0.41-0.77,0.6v5.78h-2.53v2.56l6.19-2.09q0.72,1.78,1.4,3.57V277l0.75-1.28q3.69,9.87,6.52,20.13H316a22.21,22.21,0,0,0-.9-5.32v5.32h-0.41a11.41,11.41,0,0,0-1.11-4.58v4.58H274.78q-0.29-2.85-.57-5.7h-0.76l-0.77,2.28H270.4V294h1.52a6.21,6.21,0,0,0,.78,1.89H127.64q2.65-9.61,6-18.89a12.14,12.14,0,0,1-4.47,1.25l-0.77-1.52-16-.78c0.24-1,.5-2,0.76-3H114v-0.76h-1.52v-3l7.61-.76v-0.76l3.81-.76v0.76h1.52v0.76h2.29v0.76h0.76c0.38-.14.11-1.1,1.53-0.76v0.76a22.28,22.28,0,0,0,6.52.76,241.81,241.81,0,0,1,117.45-126.3,6.05,6.05,0,0,1-2.88-4.25c-3.76-.19-5.18-2-6.86-3.68,0,0.57,0,1.15,0,1.71h-0.76v-2.41a7.68,7.68,0,0,0-3-1.72v-1.52h-0.76v-1.52l-1.53-.77v-0.76h-2.28c-1-.45.23-0.35-0.76-0.76-0.26-1.52-.51-3-0.76-4.56h-1.09l0-.15h6.16a7.64,7.64,0,0,1,2.51,4c3.11,0.9.8,0.54,2.28,2.28l2.29,0.77,0.76,1.52h1.53v1.52l2.28,1.52v1.53l3.81,3v0.76h1.52l1.52,1.52v0.08c2.88-1.36,5.81-2.63,8.75-3.88,0,0.21.07,0.41,0.11,0.59h1.52v3h-1.52v-1.53h-1.52c0,1.9,0,2.67.59,3.16-0.85.21-.29-0.12-1,0.63h0.76v0.78h0.76v-1.13a6.87,6.87,0,0,0,1.21.38V146h3.06c-0.15-3.85-1-6-1.37-9.26a239,239,0,0,1,26.73-9.09c0.43,0,.86.05,1.29,0.06,0.05-.19.1-0.35,0.13-0.47l0.3-.09c0.11-.32.21-0.63,0.32-0.94v0h0.76v0.68c0.76-.21,1.52-0.4,2.29-0.59v-1.62h0.75V122.4h1.52v3.36a241.22,241.22,0,0,1,37.33-5.92v-0.49h1.83c0.46,1.51-.11.66,0.75,1.51v-1.51h1.21v0.2c0.26,0,.52,0,0.79-0.05a0.94,0.94,0,0,1,0-.14c0.87-.87.3,0,0.76-1.52h1.53v1.48c3.74-.19,7.49-0.26,11.27-0.29a4.37,4.37,0,0,1-.3.33h-1.52c0.5,0.76,1,1.51,1.52,2.29h-0.77v0.76c1.52-.46.66,0.09,1.53-0.76h1.52c1.15-.95-1.42-0.78-1.52-0.78-0.42-1,.34-0.32.76-0.75V119h0c1,0,1.91.07,2.87,0.08-0.2.61-.4,1.21-0.6,1.8h1.52v-1.77l3,0.08v1.7h0.76v-1.67c0.91,0,1.82,0,2.73.06v-2.19h2.6v2.28c2.91,0.15,5.78.39,8.65,0.66-0.07-.33-0.13-0.67-0.2-1l5.26-1.16a2.88,2.88,0,0,0-1.07-1.24V115.8a0.4,0.4,0,0,1,.21-0.07c0.55,0.51.14,0,.55,1.33h0.75c0.21,0.41.57,0.42,1.85,0.76v-0.76h1.57c0.07,0.76.26,1.69,0.71,0.76v-0.76c8.8,0.07,18,.38,25.57.76v1.52H404.6v1.51h-1.53v-1.51H397v1.51l-5.21.29A239.09,239.09,0,0,1,462.83,142c0.17-.32.34-0.59,0.49-0.92a8.13,8.13,0,0,0,3,.76c0,0.61,0,1.25,0,1.89,4.92,2.42,9.72,5,14.45,7.78v-8.89c0.25-1.28.5-2.55,0.76-3.81h-0.76V127.38h-0.77c-0.86-3-.2-4.11,0-6.09h3.05V109.11a8.22,8.22,0,0,0-3.05-.77c-0.73.66-12.76,1.48-14.46,1.53v1.52l-5.33.77v1.52l-7.62.76V116l-6.08.76c0.12-5.12,1.93-8.57,2.9-12.49l-8,4.85L422.85,64.34,387.58,97.62,373.85,77.78a71.78,71.78,0,0,1-1.24,7.31h-1.52V83.56H368.8c-0.09-2.49-.43-6.33.77-7.61v3.8h0.75c0.87-.86,0-0.3,1.53-0.76,0.12-1.19.26-2.36,0.39-3.55l-1.36-2a17.25,17.25,0,0,0-1.31-1.34c-0.26,1.26-.51,2.53-0.77,3.81h-1.52V70.6c0.59,0,1.13,0,1.64.05l-4.45-6.45-5.27,1.24V67l-6.49,1.3-5.12,7.39,2.93-.48v2.28h0.76a7.38,7.38,0,0,1,.76-3.05h0.77v5.33h0.76l-0.76,4.57h0.76c0.8,2.37.39,2.19,0,4.57h1.52v1.52h-1.52l-0.76,2.29h0.76v0.76h3a22.54,22.54,0,0,1-.76,5.33h-2.28V97.26h-2.29c-0.26,1-.5,2-0.76,3.05H349a26,26,0,0,0,.76,6.09l2.28,0.76a7.41,7.41,0,0,1-.76,3,60.76,60.76,0,0,0-14.47,0l-0.75-2.27h-3v-1.52h6.85v0.76h0.77v-0.76h1.51v-1.54h-1.51v-1.5H339.1c-0.45-4.18-.78-8.86.76-13h0.77v0.76h0.75v5.33h-1.52v3h2.28V95.74A9.63,9.63,0,0,1,346,95q-0.37-7.63-.76-15.23H346V78l-4.76,6.88a13.45,13.45,0,0,1-1.33,3.21H339.1V88l-6.69,9.67-0.42-.4a4.88,4.88,0,0,0-.51,1.57h-0.76V96l-1.66-1.57c0,0.13.07,0.31,0.14,0.53h-0.77V93.87L320.15,86a8.85,8.85,0,0,1,.68,3.61h-3a56.41,56.41,0,0,1,.13-5.73l-2.41-2.28V82.8H314V81.28h1.12L312,78.38l-0.34,1.37a1.22,1.22,0,0,1,.76,1.53h-0.76V82.8h-0.76c0.25,0.76.51,1.52,0.76,2.28h-0.76c-0.61,1.12-.54,1.28-0.77,3l-2.28-.78V85.84h-0.76v1.52h-3v2.29h-0.76V88.13c-2.44-.64-2.22-0.9-2.28-3.81a3,3,0,0,0,1.51-1.52h-2.28V81.28h1.53V76.71l2.28,0.76V76.71c0.92-1.13.76,2.75,0.77,3l3-.76V76.71h2.37L297.16,64.34l-9.65,23.11,1.33,0.67,1.53-2.29h1.52V85.08l4.57-1.52v0.76h0.76a58,58,0,0,0-.76,9.9h0.76V93.46C297.87,92,298,95,298,95c-0.76.59-.74,0.93-1.52,1.52V95.74a10.45,10.45,0,0,1-1.52-1V94.25c-0.35-.11-0.56-0.15-0.71-0.18a7.88,7.88,0,0,1-2.35-5.17h-1.52v3h-1.53v3h-1.52c0.26-.76.51-1.52,0.76-2.27h-0.76V91.95h0.76a8,8,0,0,0-.76-3q-0.75-.39-1.52-0.76c-2,4.12-3.19,3.87-3,10.65l-3,.78V95h-0.76v2.27h-0.76V95.76c-1.82-.49-1.44-0.21-2.29-1.51-1.51-.46-0.65.09-1.52-0.78h1.52V91.19h1.52V85.86c-1.52-.45-0.65.1-1.52-0.76-9.22.82-12.52,2.57-17.51,7.61l-2.28,1.54a5.82,5.82,0,0,0-.52.9L237.07,83.86l-0.55,2.91h1.59v2.29a7,7,0,0,0-2.1.38l-0.45,2.39,0.26,1-0.47.08-4,21.06c1.28,1.12,1.75,2.15,5.18,1a16.15,16.15,0,0,0,.59,5.05l-5.87-.21c0-.09,0-0.18-0.06-0.27-0.34-.19-0.59-0.35-0.8-0.49l-0.13.73-10.76-.39v1.52h1.52v1.53l2.28,0.76v-0.76c2.13,0,1.82.59,2.28,2.28h0.76v-2.28c2.25,0.69,1.33.45,3.41,0.07l-1.7,9h0l-0.18-.06a10,10,0,0,0-.75-3.72h1.52v-3h-1.52l-0.77,3.82h-0.76V127c-1.52-.46-0.65.11-1.52-0.76-2.57.29-2.45,0-3,2.3l-0.88.23L190.7,118.38l-0.57,1.14-3,.75V121a10.06,10.06,0,0,1-4.56,2.28l1,40.61-48.11-6.19,11.21,47.18-44.46,3.61a3.18,3.18,0,0,0-.5,1.79h-0.77v-1.68l-2.61.21,15.4,32.5H114l-0.22.23,5.18,11,1.13,0.55a1.22,1.22,0,0,1,1.52-.74c0.25,0.74.51,1.5,0.76,2.28,0.81,0.91,2.4,1.17,3.81,1.52v-3.8h-1.52l0.76-1.53,2.29-.76a30.31,30.31,0,0,0,.76-6.09c2.28,0.59,2,.47,2.29,3-1.34,1.14-1.45,2.06-1.52,4.58h-1.52v2.27h0.76c0.46-1.81.24-1.4,1.53-2.27v3c-0.87.86-.3,0-0.76,1.52l-4.57.76v0.76h-3v-0.76h-3.81v0.76l-5.33-.76a6.3,6.3,0,0,1,.89-2.55l-23,6.88v1c-0.5,0-1.55-.05-2.79-0.16l-15,4.49L72.86,267v-0.19l3.81-.76v0.76c0.87,0.87.31,0,.76,1.52H76.66v3H76.2l2.91,3.8h1.36c0.69-.32,0-1,2.28-1.52-0.59-.78-0.94-0.75-1.52-1.52h2.29c1,1.55,1.24,1.42,3.8,1.52v-0.76h0.76v-2.3l-2.29.78c-0.44-1.54.1-.66-0.76-1.52,0.26-1,.51-2,0.76-3h2.29v3.8h0.76v0.78c0.87,0.86.31,0,.76,1.52h2.28v0.76c0.87,0.87.3,0,.76,1.52H91.89v4.58c-3,.17-5.95.32-8.92,0.49l19,24.88L59.4,328.39l27.21,23.37,2.45-.82v0.76h0.77c-0.14.78-.26,1.62-0.36,2.51l1.83,1.58c0-.09,0-0.17.05-0.26h0.76v1L96.19,360l-2.94,2.53,0.38-.15v1.52c-0.87.87-.3,0-0.76,1.52H90.59v-0.6L76.88,376.58v2.53H78.4v-0.75c1.07-.15-0.29.53,0.76,0.75h3c0.26,1.52.51,3,.76,4.56l-4.57.78v0.75c0.87,0.86.31,0,.76,1.52h1.53c-0.47,2.45-1.14,1.52-1.53,2.28v3c-0.74,1.08-3.48.82-5.33,0.76v0.76H73.07v-0.76c-1.05-1.48,1.33-5.2,0-8.37-0.13-.34-1-0.13-1.52-2.3,2.87,0.1,8.35.67,9.9-.76H75.36v-1.52H73.83v1.52H72.31v-0.9l-2.28,2v1.22H68.6l-5,4.29c-0.11,1.91-.21,3.83-0.32,5.74l15.86,8.68V401.2c0.87,0.87.3,0,.76,1.53H79.8L83,404.46V402h0.77c0.25-.77.51-1.53,0.77-2.29h0.76v3H86v3c0.75-.25,1.52-0.5,2.28-0.76v1.52a2.35,2.35,0,0,0-.54.55l14.2,7.75-3,3.94v1.48H98.2V421H99v1.52H97.45a18.67,18.67,0,0,1,.12-1.92l-25,32.78,40,12a5.11,5.11,0,0,1-.87-2.39h-1.53l-0.77-2.28h0.77c1.71-2.07,5.25-3.22,8.38-3.82-0.13,2.34-1,5.71,0,7.63h0.76l2.28,3a19.54,19.54,0,0,1,6.85,4.57L130,474.4h3c0.26,0.51.51,1,.76,1.52h0.77v1.54l1.52,0.76,4.57,5.33h2.28l1.52,3c1.62,1.29,3.29,1.48,4.57,3.06h3c0.76,2.94,2.23,2.39,3,5.33,3.86,1,5.28,5,9.14,6.09v1.51c0.22,0.06,1.1.41,2.07,0.8-3.12-4.21-6.08-8.56-8.92-13v1.5H155.1v-0.76a5.9,5.9,0,0,1-1.52-2.27h2.82q-3.16-5-6.09-10.14c-0.44-.44-0.87-0.87-1.31-1.28l-0.76-1.54h-1.52v-0.74l-3.81-3.05,0.76-1.52h-0.76c-0.44.31-.11,1.24-1.53,0.76V470.6h-0.76v-2.3a5.43,5.43,0,0,0,3-.75v0.75l1.53,0.92c-1.12-2.19-2.2-4.42-3.26-6.65h5V461h1.53v1.54h3V461h3v1.54c2.61-.08,7-0.53,8.37.76a8.18,8.18,0,0,0,3.05-.76v-3.81H162.9v-1.52h-6.09v1.52h3.05c-2.33,2.08-11.68.09-15.23,0V458h2.28v-1.52h2.28v-0.76H150v-2.3h-3q-0.77-8.36-1.53-16.75c-2.24,2.57.83,9.31-.76,12.18h-0.76s0,2.88-.76,1.53v-1.53h-0.76c-0.7,1.37.53,2.39,0.76,3.06a18.32,18.32,0,0,1-5.55.74A240.26,240.26,0,0,1,126,417.74H382.17v0.59h1.24v-0.59h33.48v0.59c4,1.5,8.44-.94,11.15,1.24h2.5v-1.24l-1.26-.59H507v0.18h1.38l-0.05-.18H594q-0.53,2.16-1.1,4.31c0,0.36,0,.79.06,1.34-0.22.15-.39,0.26-0.54,0.34-0.73,2.69-1.46,5.39-2.28,8h0.53v3h-1.52V434.7c-2.29,7-4.88,14-7.79,20.68H583v1.52l-2.7.67q-2.36,5.34-5,10.52c0,0.09,0,.15.06,0.23h-0.17a242,242,0,0,1-61.17,76.91,12.13,12.13,0,0,0,.21-2.11h-0.75c-0.19.91-.33,1.9-0.45,2.93L510,548.59c-0.06-.24-0.12-0.51-0.22-0.89l-4.58-.76c0,1.85.09,3.58,0.23,5.18-1.08.82-2.17,1.66-3.27,2.47v-3.07c-1.52-.46-0.66.1-1.53-0.76h-0.75v3.79h-0.77c-1.46-3.36-1-2.49-.76-6.85h-1.53V550h-1.51c-0.64,2.45-1.49,2.63-1.53,6.09l-2.28.78v-1.54H490.7c0-.46.67-1.4,0.75-3h-2.28c-0.22,2.16-.33,2.77-1.54,3.8v0.78h-0.76c-0.25-2.3-.51-4.57-0.75-6.87l-1.52.7v0.83l-1.53.76v3.8h-1.52c-0.26,1.28-.5,2.55-0.76,3.81h0.76v1.52h0.76v0.78h-0.76v1.52h0.76v0.75h-0.76v3.64a240.17,240.17,0,0,1-39.31,18.47c-0.4,0-.91.11-1.69,0.24v0.35l-1.7.6-0.57-.19v0.39c-1.52.51-3,1-4.57,1.52v-1.15h-0.76l-0.53,1.55A240.51,240.51,0,0,1,360,601c-5.88,0-11.7-.29-17.47-0.69a2.54,2.54,0,0,0,.55-0.55h-0.76l0.76-1.53h-0.76v-0.75h-0.76v2.75l-1.66-.12c-0.21-.63-0.42-1.25-0.62-1.88a5.85,5.85,0,0,0-2.29,1.53H335.6q-11.6-1.17-22.86-3.42v2.21h0.77c0.86-.87,0-0.3,1.52-0.77-0.12,2.66-.48,2.85-0.94,3.74-0.24-.09-0.48-0.17-0.72-0.25,0.34,1.14.11,0.94,0.34,1.14a6.5,6.5,0,0,0-.2.71h-0.72c-0.32-.12-0.63-0.23-0.94-0.33v0.76h-0.76v1.53l0.89-.3v0.61h-0.77v0.76h-1.52v0.76c-1.29,1.06-1.54,1.27-3.81,1.52l-1.13-1.69,1.77-.14c-1.28-2-2.42-2.22-4.42-1.57l-0.15-.21v-1.27h-1.52a0.33,0.33,0,0,0,0,.09l-2.14-.52q-2.66-3.06-5.33-6.09h-1.52l-1.52-2.28c-2-1.79-2.9-.48-3.81-3.83a18.35,18.35,0,0,0,2.8-.6,240.82,240.82,0,0,1-33.23-13l0.73,1.43h1.52l2.28,3,2.29,0.76,0.76,1.52h3V583.3h2.29c-0.87,2.28-.59,4.71,1.52,6.09v0.76c1.58,1,4.36-.1,6.09,1.52-1.34,1.06-2,.35-0.76,1.53,3.11,5.33,4.1,1.2,8.38,2.28v0.76h1.52c-0.33,1.66-.5,2.17-1.52,3,0.44,1.54-.1.67,0.76,1.52,1.78,3,2.47,1.46,4.56,3l0.77,2.28c0.76,0.52,1.52,1,2.28,1.52v0.76a7.81,7.81,0,0,0,4.11.45h1.09v-0.07a10.21,10.21,0,0,1,3.93.38c-0.24,1-.5,2-0.75,3H299c2.25,4.16,1.31,5,.76,9.9H296c0.07-1.77.6-1.94,0.76-3l-1.53-.78c-0.26-1-.51-2-0.76-3l-2.28-.75c-0.25-1.54-.51-3.06-0.76-4.58-1.82,0-1.91-.55-3.05-0.77V610c-1.41.82-1.36,1.91-2.28,0.76l-2.28-1.53v-0.76h-1.53c-1.39-.79-4.63-3-3-4.56h-3.05v-0.75c-1.19-.51-2-0.34-3-0.78v-2.28h-2.29c-0.24-.5-0.5-1-0.75-1.52-0.18-.15-1.52-1.52-1.52-1.52H267v-0.78a8.52,8.52,0,0,0-3.81-2.28v-1.52a5.69,5.69,0,0,1-4.57-3h3.81c-0.26-1.26-.51-2.53-0.76-3.8h-1.53v-1.54h-1.52a11.41,11.41,0,0,0,.75,4.57h-2.28c-1.53-1.77-3.05-3.55-4.57-5.33h3v-0.76c-2.29-1.34-2.53-3.13-3-6.09l-3.8.76v2.3c-2.11-.56-1.71-0.21-2.29-2.3h-0.76v-3H245v3h-2.28c-1.79-3.41-5.81-7.37-9.9-8.37-0.26-1.27-.51-2.55-0.76-3.82h-0.77c-1.21-1.32-1.57-1.58-3-.76v-0.75h-0.76v-0.76a5.35,5.35,0,0,0,1-.89,242,242,0,0,1-29.59-22.73h-0.32v-0.27c-0.39-.36-0.77-0.71-1.16-1-1.17.28-1.19,0.57-2.65-1h-0.76l0.76-1.51h-0.76c-0.44.31-.11,1.24-1.52,0.75v-0.75c-0.87-.86-0.3,0-0.76-1.52h-1.53l-2.28-3.06h-1.53V530h-0.77v-1.53H184c0.19-1.1.37-2.2,0.55-3.3-1.34-1.42-2.69-2.84-4-4.29a6.53,6.53,0,0,0-1.9-.78v3.06h-0.76v-1.54c-2.09-.48-1.74-1-3.81-1.52,0.71-2.62,1-1.42,2.29-3a6.2,6.2,0,0,1-2.21-3.56c-0.07-.09-0.15-0.17-0.22-0.26h-1.38c-0.44-1.86-.8-1.67-1.52-3l-2.28.76v3a6.93,6.93,0,0,1-4.57-3h-0.77c-0.25-1.53-.51-3.06-0.76-4.57H162v3h-0.76v-0.76h-0.76v-2.27h-0.76l-1.52-2.28h-2.29v-0.78c-1.06-.66-1.31-0.55-3-0.76v-1.51c-2.7-1.12-5.31-2.22-6.09-5.33,3.68,0.44,2.24,1.43,5.33,2.27v-4.55c-1.58-.84-1.35-1.24-3.81-1.54a7.68,7.68,0,0,1-3,3.06c-0.14-1.73-.1-2-0.77-3.06h-0.76v-1.52h-0.76c-1.75-4.32,2-6.13-5.33-6.08-0.25.75-.5,1.52-0.76,2.27-1.82-.45-1.41-0.23-2.28-1.52h1.52c-0.26-1.52-.5-3-0.76-4.57l-3.05.76c-0.78-1.43-2.86-5.7-4.56-3.8V474.4c-3.51-.7-5.38-3.44-6.86-6.09h0.76v-0.75h-2.28c-1-1.38-3-2.28-4.57-3v0.76H114a1.32,1.32,0,0,0,0,.53l5,1.49L98.24,511.11l48.34,3.94-11.21,47.18,30.48-3.92c-0.16.49-.32,1-0.48,1.44h-1.52v3.05c1.52-.47.65,0.1,1.52-0.77h0.76a7.24,7.24,0,0,0-.76,3,11.66,11.66,0,0,1,4.57.76v1.52h2.28c0.46-1.52-.11-0.65.76-1.52v1.52h2.28c-0.45-1.52.11-.65-0.76-1.52v-1.52h0.76v0.76c1.28,0.86,1.06.46,1.53,2.28h1.52v-1.52h1.53v1.52h1.52v-3h-3.81v-1.52L173,562v-2.28h-1.52v-1.52a19.06,19.06,0,0,1-3.26-.24l15.27-2-1.15,48.48,16.9-5.94c0,2.54-.32,5.13-0.34,7.63h24.37v1.52h3v-1.52h1.52v1.52h0.76q-0.39-3.43-.76-6.85h1.52v-1.52h0.76c0.22,1.09.44,2.19,0.66,3.27L235,625.26h-0.33v3h0.91l1.47,7.82,9-5.5v1.49h2.28v-2.29l-0.69-.17,26.55-16.18a1.25,1.25,0,0,1,.43-1.24h-3.82v-0.76l-3-2.29v-1.52h-3c-0.54-2-1.21-2.43-2.28-3.8h-0.76L261,597c3.67,0.91,5.75,4.44,9.14,6.09a31,31,0,0,0,.75,6.84,8.08,8.08,0,0,0,3.06.76l1.52-3,1.53,0.76c0.47,1.08.86,1.66,1.21,2.66l0.32-.19,3.1,7.43H283c0.87-.86,0-0.3,1.53-0.76-0.25.76-.51,1.54-0.76,2.29l0.76-.76c1-.26-0.3.6,0.77,0.76l2.28-.76v0.76c0.87,0.86.3,0,.76,1.52h-4.56L283,619.11c-1.44-.42-0.77,0-1.39-0.65l15.52,37.18,21.14-20c0.09,0.38.19,0.75,0.28,1.13h6.85c-0.24-1-.5-2-0.76-3.06h-2.29V633h-0.76v-0.45l0.33-.31h4.24V633c1.54,0.25,1.52-.76,1.52-0.76h3.82v-1.51H333c0.26,0.76.51,1.51,0.77,2.27H333v1.52h5.34v-2.28l1.05,0.27,12,17.38V650h0.07L360,662.25l10-14.53h1.21c-0.66-.65-0.31-0.49-0.8-0.58l1.07-1.54c1.31,0.77,5.35,1.16,7.34.6v-0.76l3.06,0.76c1.61-1.42,4.72.42,6.85-.76v-0.76h1.53V643.9h-0.77v-0.75c-2.77,1.09-7.92-.45-11.42.75v0.78h-1.52v0.76h-5l16-23.09,35.26,33.28,18.67-44.73,5.14,3.13c-0.13.4-.27,0.81-0.4,1.2h-1.52v3c1.52-.46.66,0.1,1.52-0.76H447a7.5,7.5,0,0,0-.77,3c2,0.07,3.53-.16,4.58.76v1.53l5.31-3,26.79,16.32,8.91-47.3h0.37c0-.08,0-0.17,0-0.25l45.44,16-0.48-20.29c1.74-.46,1.39-0.21,2.23-1.51h0.76c-1.05,2.12-.68,1.79,0,3.81,2.58-.28,2.46,0,3-2.29h3V582h1.53c0.25,1.28.5,2.55,0.76,3.82a81.64,81.64,0,0,0,15.22,0c0.59-2.26,1.24-1.88,1.53-4.58h-3.81c-0.46,1.52.09,0.66-.76,1.52v0.76l-3.81-.76c-0.25-1.26-.5-2.53-0.75-3.8h-1.52v1.52h-2.29c-0.06-8.23-1.55-13.56-1.52-21.33h-1.52v1.52H547v1.54h-0.76c-0.26-1-.51-2-0.76-3.06H544v1.52h-3.05a29,29,0,0,1-.7-4.12l44.39,5.71-11.19-47.18,48.33-3.94L608.2,482.49a16.83,16.83,0,0,1-3.07.3V482a7.61,7.61,0,0,0,1.83-2.15l-6-12.6,30.79-9.21v-2.69a7.61,7.61,0,0,1,.81,2.47l14.88-4.46-3.76-4.93c-0.43,0-.85.06-1.28,0.07v-0.76h-0.76l-0.52-2.66-6.33-8.28v1.81H633.3v-3h0.57L618,414.83l6.13-3.34v-2.57h1.52v1.74l3-1.62c-0.11-2.35-.17-5.13.82-6.2v3.81h0.76c0.87-.86,0-0.3,1.53-0.76,0.25-2.28.5-4.57,0.76-6.85H631v1.52c-0.78-.59-0.75-0.94-1.52-1.52-0.26,1.27-.5,2.54-0.76,3.8h-1.52V397.5a30.89,30.89,0,0,1,6.85.77,50.56,50.56,0,0,1-.49,8.09l27-14.77ZM452.72,308.81h9.06l18.12,41.94h-10l-3.9-9.06H448.46l-3.9,9.06h-10Zm-190.08,0h15.9q9.78,0,14,3.3t4.17,10.62q0,10.08-8,13l10.62,15H287.78l-9.3-13.38H272v13.38h-9.36V308.81ZM217,314.06a22.85,22.85,0,0,1,31.32,0,21.95,21.95,0,0,1,0,30.9A22.85,22.85,0,0,1,217,345,21.94,21.94,0,0,1,217,314.06Zm-43.11,0a21.52,21.52,0,0,1,15.63-6.24,22.16,22.16,0,0,1,17.28,7.86l-5.82,6.6a13.64,13.64,0,0,0-11-5.52,12.87,12.87,0,0,0-9,3.45,12,12,0,0,0-3.75,9.3,12.69,12.69,0,0,0,3.54,9.39,11.68,11.68,0,0,0,8.58,3.54A13.81,13.81,0,0,0,200.61,337l6,6.18q-7.14,8-16.83,8t-16-6.12A22.17,22.17,0,0,1,173.94,314.09Zm28.71,75.51q-5.35,4.25-16.33,4.25h-6.59v13.82H168.68V358.14h17.5q11.41,0,16.61,4.43t5.21,13.6Q208,385.35,202.65,389.6ZM249,407.66l-4.6-10.7H223.65l-4.6,10.7H207.29l21.4-49.52h10.7l21.4,49.52H249Zm47.93-3.58q-5,4.15-13.14,4.14-11.76,0-21.18-8.71l6.59-8.08q8,7,14.81,7a7.77,7.77,0,0,0,4.78-1.31,4.21,4.21,0,0,0,1.74-3.54,4.13,4.13,0,0,0-1.84-3.54q-1.84-1.31-7.3-2.66-8.64-2.06-12.65-5.35t-4-10.34q0-7,5.07-10.87A20.38,20.38,0,0,1,282.46,357a30.42,30.42,0,0,1,9.92,1.7,26.57,26.57,0,0,1,8.64,4.82l-5.6,8.08a21.8,21.8,0,0,0-13.32-4.89,6.66,6.66,0,0,0-4.36,1.31,4.27,4.27,0,0,0-1.59,3.47,3.92,3.92,0,0,0,1.95,3.44q1.95,1.28,9,3T298,383.15q3.9,3.47,3.9,10.13A13.37,13.37,0,0,1,296.94,404.08Zm9.32-95.27h14.82q9.66,0,14.07,3.75t4.41,11.52q0,7.77-4.53,11.37T321.2,339h-5.58v11.7h-9.36V308.81Zm35.88,95.27q-5,4.15-13.14,4.14-11.76,0-21.18-8.71l6.59-8.08q8,7,14.81,7a7.77,7.77,0,0,0,4.78-1.31,4.21,4.21,0,0,0,1.74-3.54,4.13,4.13,0,0,0-1.84-3.54q-1.84-1.31-7.3-2.66-8.64-2.06-12.65-5.35t-4-10.34q0-7,5.07-10.87A20.38,20.38,0,0,1,327.66,357a30.42,30.42,0,0,1,9.92,1.7,26.57,26.57,0,0,1,8.64,4.82l-5.6,8.08a21.8,21.8,0,0,0-13.32-4.89,6.66,6.66,0,0,0-4.36,1.31,4.27,4.27,0,0,0-1.59,3.47,3.92,3.92,0,0,0,1.95,3.44q1.95,1.28,9,3t10.95,5.21q3.9,3.47,3.9,10.13A13.37,13.37,0,0,1,342.14,404.08Zm2.34-74.58a20.72,20.72,0,0,1,6.36-15.45,22.85,22.85,0,0,1,31.32,0,21.95,21.95,0,0,1,0,30.9,22.85,22.85,0,0,1-31.32,0A20.72,20.72,0,0,1,344.48,329.51Zm46,60.09q-5.35,4.25-16.33,4.25h-6.59v13.82H356.56V358.14h17.5q11.41,0,16.61,4.43t5.21,13.6Q395.88,385.35,390.53,389.6Zm5.91-80.79h15.9q9.78,0,14,3.3t4.17,10.62q0,10.08-8,13l10.62,15H421.58l-9.3-13.38H405.8v13.38h-9.36V308.81Zm49.74,92a27,27,0,0,1-37,0,25.91,25.91,0,0,1,0-36.49,27,27,0,0,1,37,0A25.91,25.91,0,0,1,446.18,400.83Zm46.54,6.84-11-15.8h-7.65v15.8H463V358.14h18.77q11.55,0,16.47,3.9t4.92,12.54q0,11.9-9.42,15.37l12.54,17.71h-13.6Zm6.74-90.75v33.84H490.1V316.91H478.22v-8.1h33.12v8.1H499.46Zm49.09,50.79h-14v40H523.47v-40h-14v-9.56h39.11v9.56Zm0.53-17h-30.9V308.81h30.24v8.34H527.54v8.64h18.78v8H527.54v8.7h21.54v8.28Z" transform="translate(-59.4 -57.75)"/><path class="cls-1" d="M232.73,343a11.54,11.54,0,0,0,8.85-3.93,14.48,14.48,0,0,0,0-19.11,11.87,11.87,0,0,0-17.7,0,14.48,14.48,0,0,0,0,19.11A11.53,11.53,0,0,0,232.73,343Z" transform="translate(-59.4 -57.75)"/><path class="cls-1" d="M285.38,327.71q1.74-1.56,1.74-5t-1.8-4.65q-1.8-1.26-6.3-1.26h-7v12.42h6.84Q283.64,329.27,285.38,327.71Z" transform="translate(-59.4 -57.75)"/><path class="cls-1" d="M419.18,327.71q1.74-1.56,1.74-5t-1.8-4.65q-1.8-1.26-6.3-1.26h-7v12.42h6.84Q417.44,329.27,419.18,327.71Z" transform="translate(-59.4 -57.75)"/><polygon class="cls-1" points="397.88 263.54 392.6 275.72 403.1 275.72 397.88 263.54"/><path class="cls-1" d="M382,369.44q-2.59-1.81-8-1.81h-6.31v16.65h7.44q5.53,0,7.51-2.23t2-6.52Q384.54,371.25,382,369.44Z" transform="translate(-59.4 -57.75)"/><path class="cls-1" d="M427.72,366.64a13.57,13.57,0,0,0-10.45,4.68,17.1,17.1,0,0,0,0,22.57,14.09,14.09,0,0,0,20.9,0,17.1,17.1,0,0,0,0-22.57A13.57,13.57,0,0,0,427.72,366.64Z" transform="translate(-59.4 -57.75)"/><path class="cls-1" d="M375.38,339.08a14.48,14.48,0,0,0,0-19.11,11.87,11.87,0,0,0-17.7,0,14.48,14.48,0,0,0,0,19.11A11.93,11.93,0,0,0,375.38,339.08Z" transform="translate(-59.4 -57.75)"/><path class="cls-1" d="M489.82,369.12q-2.13-1.49-7.44-1.49h-8.29V382.3h8.08q5.67,0,7.72-1.84t2.05-5.84Q491.95,370.61,489.82,369.12Z" transform="translate(-59.4 -57.75)"/><path class="cls-1" d="M328.28,329.06a8.06,8.06,0,0,0,1.68-5.52q0-3.63-2.19-5.16T321,316.85h-5.34V331h6.3Q326.6,331,328.28,329.06Z" transform="translate(-59.4 -57.75)"/><polygon class="cls-1" points="168.43 329.51 180.83 329.51 174.67 315.13 168.43 329.51"/><path class="cls-1" d="M194.07,369.44q-2.59-1.81-8-1.81h-6.31v16.65h7.44q5.53,0,7.51-2.23t2-6.52Q196.66,371.25,194.07,369.44Z" transform="translate(-59.4 -57.75)"/></svg>