<?xml version="1.0" encoding="utf-8"?>
<!-- Generator: Adobe Illustrator 18.1.1, SVG Export Plug-In . SVG Version: 6.00 Build 0)  -->
<svg version="1.1" id="Layer_1" xmlns="http://www.w3.org/2000/svg" xmlns:xlink="http://www.w3.org/1999/xlink" x="0px" y="0px"
	 viewBox="0 0 84 29.1" enable-background="new 0 0 84 29.1" xml:space="preserve">
<g>
	<linearGradient id="SVGID_1_" gradientUnits="userSpaceOnUse" x1="13.3909" y1="27.138" x2="13.3909" y2="2.3718">
		<stop  offset="0" style="stop-color:#722A81"/>
		<stop  offset="1" style="stop-color:#9B5CA5"/>
	</linearGradient>
	<path fill="url(#SVGID_1_)" d="M24.5,27.1H1.8c-1.4,0-1.7-2-1.2-2.9L11.7,3.4c0.6-1.2,2.1-1.6,3,0L26,23.9
		C26.9,25.5,26.1,27.1,24.5,27.1L24.5,27.1z"/>
	<linearGradient id="SVGID_2_" gradientUnits="userSpaceOnUse" x1="53.5612" y1="27.0862" x2="53.5612" y2="1.5457">
		<stop  offset="0" style="stop-color:#722A81"/>
		<stop  offset="1" style="stop-color:#9B5CA5"/>
	</linearGradient>
	<path fill="url(#SVGID_2_)" d="M52.3,1.5h2.6C56.6,1.5,58,3,58,4.7v19.3c0,1.7-1.4,3.1-3.1,3.1h-2.6c-1.7,0-3.1-1.4-3.1-3.1V4.7
		C49.1,3,50.5,1.5,52.3,1.5L52.3,1.5z"/>
	<linearGradient id="SVGID_3_" gradientUnits="userSpaceOnUse" x1="33.212" y1="26.5423" x2="33.212" y2="2.0713">
		<stop  offset="0" style="stop-color:#722A81"/>
		<stop  offset="1" style="stop-color:#9B5CA5"/>
	</linearGradient>
	<path fill="url(#SVGID_3_)" d="M44.3,2.1H21.6c-1.4,0-1.7,1.9-1.2,2.8l11.1,20.6c0.6,1.2,2.1,1.5,3,0L45.8,5.2
		C46.7,3.7,45.9,2.1,44.3,2.1L44.3,2.1z"/>
	<linearGradient id="SVGID_4_" gradientUnits="userSpaceOnUse" x1="72.7843" y1="26.5777" x2="72.7843" y2="0.6081">
		<stop  offset="0" style="stop-color:#722A81"/>
		<stop  offset="1" style="stop-color:#9B5CA5"/>
	</linearGradient>
	<path fill="url(#SVGID_4_)" d="M62,2.5v22.7c0,1.4,1.7,1.7,2.5,1.2l18.2-10.5c1-0.6,1.4-2.1,0-3L64.7,1C63.4,0.1,62,0.9,62,2.5
		L62,2.5z"/>
	<path fill="#333333" d="M81.8,27v-1.8h0.4l0.4,1.3c0,0.1,0.1,0.2,0.1,0.3c0-0.1,0.1-0.2,0.1-0.3l0.4-1.3h0.3V27h-0.2v-1.5L82.8,27
		h-0.2l-0.5-1.6V27H81.8L81.8,27z M80.8,27v-1.6h-0.6v-0.2h1.4v0.2H81V27H80.8L80.8,27z"/>
</g>
</svg>
